<svg width="45" height="51" viewBox="0 0 45 51" fill="none" xmlns="http://www.w3.org/2000/svg">
<path fill-rule="evenodd" clip-rule="evenodd" d="M41.7142 7.98507L31.2646 0.857711C28.4947 -1.03156 24.1906 0.456725 22.3391 3.17126L1.6653 33.4814C-0.185615 36.1951 0.55745 39.9278 3.32735 41.817L13.7769 48.9444C16.5459 50.8331 20.2934 50.1646 22.145 47.4501L42.8187 17.1399C44.6685 14.4241 44.4832 9.87374 41.7142 7.98507ZM37.4215 23.1621L30.4924 33.3209L27.8588 31.9725L30.7136 27.787L37.4215 23.1621ZM31.1534 25.3879C31.1534 25.3879 34.9608 22.1023 38.1803 19.3217C31.734 11.102 22.1417 8.32615 22.0006 8.28531L21.999 8.28485L18.9186 17.0428L31.1534 25.3879ZM16.6859 18.6222L14.0176 22.5342L11.7989 20.5756L18.5432 10.6876L16.6859 18.6222ZM10.7755 22.0752L4.62222 31.0966L8.12931 31.1663L12.9978 24.0286L10.7755 22.0752ZM4.25819 34.6064L8.2108 33.0455L20.4483 41.3924L20.4386 45.6426L4.25819 34.6064ZM26.8341 33.4796L22.1581 40.3351L23.5015 43.5751L29.4701 34.8245L26.8341 33.4796Z" fill="#4D569B"/>
</svg>
